<?xml version="1.0" encoding="UTF-8"?>
<svg version="1.1" viewBox="0 0 123.14 105.1" xml:space="preserve" xmlns="http://www.w3.org/2000/svg"><g transform="translate(-.018062 -11.501)"><g fill="none" stroke="#fff"><g stroke-width="4.465"><g stroke-linejoin="round"><path d="m3.2967 76.567c14.961 1.6265 15.762-14.496 16.722-26.989 2.0408-20.748 25.596-35.881 41.777-35.844 16.487 0.03842 33.152 12.419 40.449 33.692 3.1565 12.64 0.56049 32.778 17.562 29.147 4.836-1.0328-7.0566 9.0704-13.726 9.2996-12.654 0.43484-30.465-7.9303-44.34-8.1384-15.948-0.23919-31.283 11.314-47.053 8.6996-4.8915-0.81098-15.858-10.353-11.39-9.8676z" stroke-linecap="round"/><path d="m54.366 52.75s-7.4044 2.6229-10.203-2.2795c-3.1596-5.5354-4.7331-9.6799-10.15-10.491 5.215-0.77374 7.5338-5.8441 9.8565-9.318 4.4538-6.6611 10.02-3.6131 10.02-3.6131"/><path d="m68.769 52.952s7.4044 2.6229 10.203-2.2795c3.1596-5.5354 4.7331-9.6799 10.15-10.491-5.215-0.77374-7.5338-5.8441-9.8565-9.318-4.4538-6.6611-10.02-3.6131-10.02-3.6131"/></g><circle cx="61.552" cy="40.037" r="14.312" stroke-linecap="round" style="paint-order:fill markers stroke"/><path d="m51.731 32.737 10.006 19.111 9.6772-19.101z"/></g><circle cx="61.32" cy="39.796" r="5.0932" display="none" stroke-linecap="round" stroke-width="3.865" style="paint-order:fill markers stroke"/></g><g fill="#fff"><circle cx="61.54" cy="40.189" r="1.7189" display="none" style="paint-order:fill markers stroke"/><path d="m61.736 57.183c-0.51683 4.5054-6.7656 9.0651-4.1499 12.65 1.6419 2.2504 6.7367 2.2088 8.3571-0.05722 2.5742-3.6-3.588-7.9971-4.2072-12.593z"/><path d="m55.293 56.588c-0.24936 2.1738-3.2643 4.3738-2.0023 6.1035 0.79222 1.0858 3.2504 1.0657 4.0322-0.02761 1.242-1.737-1.7312-3.8585-2.0299-6.0759z"/><path d="m68.158 56.489c-0.24936 2.1738-3.2643 4.3738-2.0023 6.1035 0.79222 1.0858 3.2504 1.0657 4.0322-0.02761 1.242-1.737-1.7312-3.8585-2.0299-6.0759z"/></g><g stroke="#fff"><path d="m39.99 99.742s8.4542-9.9391 21.749-9.9391 21.702 9.9157 21.702 9.9157-8.6418 9.9333-21.726 9.9391c-13.084 6e-3 -21.726-9.9157-21.726-9.9157z" fill="none" stroke-linecap="round" stroke-linejoin="round" stroke-width="4.465"/><path d="m53.179 91.475c-0.10441 5.754 4.3221 8.8944 8.5038 8.8978 4.1379 3e-3 8.6363-2.9749 8.43-8.791-1.8784-1.1993-5.7181-1.7823-8.3931-1.7796-2.675 0.0028-7.2494 0.90866-8.5407 1.6728z" fill="#fff" stroke-width="3.565"/><g fill="none"><path d="m51.319 80.116 1.4743 11.516" display="none" stroke-width="3.565"/><path d="m54.85 108.88 0.83891 5.4844" stroke-linecap="round" stroke-miterlimit="3.8" stroke-width="4.465"/><path d="m71.724 80.024-1.4743 11.516" display="none" stroke-width="3.565"/><path d="m68.007 108.94-0.70994 5.4165" stroke-linecap="round" stroke-width="4.465"/></g></g></g></svg>
