<?xml version="1.0" encoding="UTF-8"?>
<!-- Uploaded to: SVG Repo, www.svgrepo.com, Generator: SVG Repo Mixer Tools -->
<svg version="1.1" viewBox="0 0 1024 1024" xmlns="http://www.w3.org/2000/svg">
 <circle cx="512" cy="512" r="512" fill="#5865f2"/>
 <path d="m734.56 307.59a529.6 529.6 0 0 0-130.73-40.541 1.9819 1.9819 0 0 0-2.1073 0.99094 368.92 368.92 0 0 0-16.307 33.441 488.92 488.92 0 0 0-146.82 0 338.36 338.36 0 0 0-16.532-33.441 2.0571 2.0571 0 0 0-2.1073-0.99094 528.08 528.08 0 0 0-130.68 40.541 1.869 1.869 0 0 0-0.86551 0.74006c-83.251 124.39-106.06 245.73-94.867 365.53a2.2077 2.2077 0 0 0 0.84041 1.5052 532.57 532.57 0 0 0 160.37 81.069 2.0822 2.0822 0 0 0 2.2578-0.74007 380.63 380.63 0 0 0 32.801-53.36 2.0321 2.0321 0 0 0-1.1164-2.8223 350.72 350.72 0 0 1-50.099-23.833 2.0571 2.0571 0 0 1-0.2007-3.4118c3.3617-2.5087 6.7359-5.1428 9.947-7.8021a1.9819 1.9819 0 0 1 2.0697-0.27596c105.1 47.992 218.9 47.992 322.76 0a1.9819 1.9819 0 0 1 2.1073 0.25087c3.2111 2.6467 6.5854 5.3059 10.035 7.8272a2.0571 2.0571 0 0 1-0.17561 3.4118 329.1 329.1 0 0 1-50.174 23.833 2.0446 2.0446 0 0 0-1.0913 2.8599 427.38 427.38 0 0 0 32.776 53.335 2.0321 2.0321 0 0 0 2.2578 0.76516 530.81 530.81 0 0 0 160.56-81.069 2.0571 2.0571 0 0 0 0.84042-1.4801c13.397-138.53-22.428-258.87-94.955-365.54a1.6307 1.6307 0 0 0-0.79024-0.79024zm-329.07 293.33c-31.647 0-57.7-29.051-57.7-64.725s25.564-64.725 57.7-64.725c32.4 0 58.227 29.302 57.7 64.725 0.0251 35.674-25.551 64.725-57.7 64.725zm213.4 0c-31.647 0-57.7-29.051-57.7-64.725s25.564-64.725 57.7-64.725c32.4 0 58.227 29.302 57.7 64.725 0.0125 35.674-25.3 64.725-57.7 64.725z" fill="#fff"/>
</svg>
